<?xml version="1.0" encoding="UTF-8"?>
<svg xmlns="http://www.w3.org/2000/svg" xmlns:xlink="http://www.w3.org/1999/xlink" width="96pt" height="96pt" viewBox="0 0 96 96" version="1.1">
<g id="surface7763606">
<path style=" stroke:none;fill-rule:nonzero;fill:rgb(0%,0%,0%);fill-opacity:1;" d="M 0 48 C 0 21.492188 21.492188 0 48 0 C 74.507812 0 96 21.492188 96 48 C 96 74.507812 74.507812 96 48 96 C 21.492188 96 0 74.507812 0 48 Z M 48 94.078125 C 73.449219 94.078125 94.078125 73.449219 94.078125 48 C 94.078125 22.550781 73.449219 1.921875 48 1.921875 C 22.550781 1.921875 1.921875 22.550781 1.921875 48 C 1.921875 73.449219 22.550781 94.078125 48 94.078125 Z M 48 94.078125 "/>
<path style=" stroke:none;fill-rule:nonzero;fill:rgb(0%,0%,0%);fill-opacity:1;" d="M 45.179688 19.199219 L 42.992188 28.84375 L 35.34375 37.339844 C 34.410156 38.375 33.894531 39.71875 33.894531 41.113281 L 33.894531 67.15625 C 33.894531 70.273438 36.417969 72.800781 39.535156 72.800781 L 62.195312 72.800781 C 64.285156 72.800781 66.175781 71.570312 67.027344 69.660156 L 75.496094 50.601562 C 75.964844 49.546875 76.210938 48.402344 76.210938 47.246094 L 76.210938 44.589844 C 76.210938 41.484375 73.671875 38.949219 70.570312 38.949219 L 50.820312 38.949219 C 50.820312 38.949219 53.640625 32.257812 53.640625 27.277344 C 53.640625 19.542969 45.179688 19.199219 45.179688 19.199219 Z M 19.789062 38.949219 L 19.789062 72.800781 L 28.253906 72.800781 L 28.253906 38.949219 Z M 19.789062 38.949219 "/>
</g>
</svg>
